
<svg aria-hidden="true" style="position:absolute;width:0;height:0;overflow:hidden" xmlns="http://www.w3.org/2000/svg">
  <defs>
    <!--Header logo-->
    <symbol id="moon-filmoteka_icon" viewBox="0 0 32 32">
      <path fill="#25b7d3" style="fill:var(--color1, #25b7d3)" d="M32.019 16.009c0 8.842-7.168 16.009-16.009 16.009S.001 24.85.001 16.009C.001 7.167 7.169 0 16.01 0s16.009 7.168 16.009 16.009z"/>
      <path fill="#22364b" style="fill:var(--color2, #22364b)" d="M10.45 5.357h11.119v21.304H10.45V5.357z"/>
      <path fill="#22364b" style="fill:var(--color2, #22364b)" d="M24.583 5.357h.8v21.304h-.8l-.001-.786a.569.569 0 0 0-.57-.568l-1.138.001a.569.569 0 0 0-.568.57l.001.783h-.8V5.357h.8l.001.786c0 .314.255.568.57.568l1.138-.001a.569.569 0 0 0 .568-.57l-.001-.783zm-.567 18.395a.569.569 0 0 0 .568-.57l-.002-1.569a.569.569 0 0 0-.57-.568l-1.138.001a.569.569 0 0 0-.568.57l.002 1.569c0 .314.255.568.57.568l1.138-.001zm0-4.261a.569.569 0 0 0 .568-.57l-.002-1.569a.569.569 0 0 0-.57-.568l-1.138.001a.569.569 0 0 0-.568.57l.002 1.569c0 .314.255.568.57.568l1.138-.001zm0-4.26a.568.568 0 0 0 .568-.569l-.002-1.569a.569.569 0 0 0-.57-.568l-1.138.001a.569.569 0 0 0-.568.57l.002 1.569c0 .314.255.568.57.568l1.138-.001zm0-4.261a.569.569 0 0 0 .568-.57l-.002-1.569a.569.569 0 0 0-.57-.568l-1.138.001a.568.568 0 0 0-.568.569l.002 1.569c0 .314.255.568.57.568l1.138-.001zM9.711 5.357h.8v21.304h-.8l-.001-.786a.568.568 0 0 0-.569-.568l-1.138.001a.569.569 0 0 0-.568.57l.001.783h-.8V5.357h.8l.001.786c0 .314.255.568.57.568l1.138-.001a.569.569 0 0 0 .568-.57l-.001-.783zm-.567 18.395a.569.569 0 0 0 .568-.57l-.002-1.569a.568.568 0 0 0-.569-.568l-1.138.001a.569.569 0 0 0-.568.57l.002 1.569c0 .314.255.568.57.568l1.138-.001zm0-4.261a.569.569 0 0 0 .568-.57l-.002-1.569a.568.568 0 0 0-.569-.568l-1.138.001a.569.569 0 0 0-.568.57l.002 1.569c0 .314.255.568.57.568l1.138-.001zm0-4.26a.568.568 0 0 0 .568-.569l-.002-1.569a.568.568 0 0 0-.569-.568l-1.138.001a.569.569 0 0 0-.568.57l.002 1.569c0 .314.255.568.57.568l1.138-.001zm0-4.261a.569.569 0 0 0 .568-.57L9.71 8.831a.568.568 0 0 0-.569-.568l-1.138.001a.568.568 0 0 0-.568.569l.002 1.569c0 .314.255.568.57.568l1.138-.001z"/>
      <path fill="#868686" style="fill:var(--color3, #868686)" d="M21.508 11.317a1.04 1.04 0 0 0-1.04-1.04H11.55a1.04 1.04 0 0 0-1.04 1.04v9.386c0 .574.465 1.04 1.04 1.04h8.918a1.04 1.04 0 0 0 1.04-1.04v-9.386zM21.569 5.357v2.879c0 .574-.468 1.04-1.045 1.04h-8.967a1.042 1.042 0 0 1-1.045-1.04V5.358H21.57zM21.569 26.661v-2.878c0-.574-.468-1.04-1.045-1.04h-8.967c-.577 0-1.045.465-1.045 1.04v2.878H21.57z"/>
      <path fill="#c43d3d" style="fill:var(--color4, #c43d3d)" d="M20.45 16.009a4.41 4.41 0 1 1-8.82 0 4.41 4.41 0 1 1 8.82 0z"/>
      <path fill="#fff5f5" style="fill:var(--color5, #fff5f5)" d="m19.092 16.009-4.599 2.525v-5.05l4.599 2.525z"/>
    </symbol>
    <!--youtube-->
    <symbol id="youtube_icon" viewBox="0 0 32 32">
      <path fill="#ed1f24" style="fill:var(--color6, #ed1f24)" d="M31.331 8.298a4.007 4.007 0 0 0-2.829-2.829C26.006 4.8 16 4.8 16 4.8s-10.007 0-12.502.669A4.007 4.007 0 0 0 .669 8.298C.001 10.793.001 16 .001 16s0 5.207.668 7.702a4.007 4.007 0 0 0 2.829 2.829C5.994 27.2 16 27.2 16 27.2s10.007 0 12.502-.669a4.007 4.007 0 0 0 2.829-2.829C32 21.207 32 16 32 16s0-5.207-.669-7.702z"/>
      <path fill="#fff" style="fill:var(--color7, #fff)" d="m12.8 20.8 8.314-4.8-8.314-4.8v9.6z"/>
    </symbol>
  </defs>
</svg>
