
<svg aria-hidden="true" style="position:absolute;width:0;height:0;overflow:hidden" xmlns="http://www.w3.org/2000/svg">
  <defs>

    <!--Header logo-->
    <symbol id="moon-filmoteka_icon" viewBox="0 0 32 32">
      <path d="M12.211 15.922c.139-2.545-1.911-4.295-4.289-4.55-.588-.063-.966.275-1.122.722-1.409.184-2.622 1.877-2.792 3.168-.289 2.199 1.382 4.238 3.583 4.395 2.324.166 4.487-1.312 4.62-3.735zm-6.482-.76c.173-.798.708-1.255 1.279-1.696.199.248.504.412.915.405 1.198-.021 2.465.734 2.317 2.078-.158 1.411-1.73 2.028-3.004 1.708-1.054-.264-1.735-1.442-1.506-2.494zM17.332 15.262c-.288 2.199 1.383 4.238 3.583 4.395 2.323.166 4.486-1.312 4.62-3.736.139-2.545-1.911-4.295-4.29-4.55-.588-.063-.966.275-1.121.722-1.409.184-2.622 1.877-2.792 3.169zm6.232.686c-.158 1.411-1.731 2.028-3.005 1.708-1.054-.264-1.736-1.442-1.507-2.494.173-.798.708-1.255 1.28-1.696.199.248.504.412.914.405 1.199-.021 2.466.734 2.318 2.078zM14.491 12.758c2.323.166 4.487-1.312 4.619-3.736.14-2.545-1.91-4.295-4.288-4.55-.588-.063-.966.275-1.122.721-1.408.184-2.622 1.877-2.792 3.168-.288 2.199 1.382 4.238 3.583 4.396zm-1.863-4.496c.173-.798.709-1.255 1.28-1.696.199.248.504.412.915.405 1.199-.021 2.466.734 2.316 2.078-.156 1.412-1.729 2.028-3.004 1.708-1.055-.264-1.736-1.442-1.507-2.495zM14.584 18.034c-.588-.063-.965.275-1.121.721-1.409.184-2.622 1.877-2.792 3.169-.288 2.198 1.383 4.238 3.583 4.395 2.324.166 4.486-1.312 4.62-3.736.139-2.546-1.911-4.295-4.289-4.55zm2.318 4.576c-.157 1.412-1.73 2.028-3.005 1.707-1.055-.264-1.736-1.442-1.506-2.494.173-.798.708-1.255 1.279-1.696.199.247.504.412.915.406 1.198-.021 2.466.733 2.317 2.077z"/>
      <path d="M10.002 29.812c2.025.703 4.064.881 6.081.671.109.011.223.009.345-.011.303-.05.604-.108.902-.172 1.587-.288 3.157-.798 4.69-1.468 2.307-1.008 4.4-2.433 6.129-4.267 1.701-1.804 2.582-3.903 3.666-6.088.168-.338-.34-.638-.508-.297-.858 1.731-2.251 3.111-3.568 4.501a17.62 17.62 0 0 1-.489.497c1.524-2.964 2.222-6.761 1.724-9.991-.99-6.414-6.341-10.988-12.672-11.664C10.053.856 3.597 3.983 1.23 10.009c-1.61 4.098-1.429 9.178.638 13.08 1.705 3.218 4.728 5.541 8.135 6.724zM2.493 13.41c.9-5.545 5.521-9.541 11.094-9.855 6.058-.341 11.484 2.994 13.084 8.952.301 1.124.321 1.654.28 2.922-.066 2.112-.43 4.258-1.326 6.187-1.851 3.983-5.587 6.026-9.816 6.612-.358.05-.592.225-.721.456-.779.02-1.553-.031-2.309-.176-2.888-.553-5.626-2.003-7.585-4.213-2.609-2.943-3.32-7.083-2.702-10.885z"/>
      <path d="M15.807 16.385c.201-.201.353-.531.34-.82-.029-.629-.51-1.16-1.16-1.16-.297 0-.61.129-.82.34-.201.201-.353.531-.34.82.028.628.51 1.16 1.16 1.16.296 0 .609-.13.82-.34z"/>
    </symbol>

    <!--header-icon-->   
     <symbol id="search-icon" viewBox="0 0 32 32">
      <path d="m27.413 24.587-6.227-6.227a9.242 9.242 0 0 0 1.473-5.033 9.333 9.333 0 1 0-18.666 0 9.333 9.333 0 0 0 9.333 9.333c1.869 0 3.61-.549 5.07-1.496l-.036.022 6.227 6.227c.362.361.861.585 1.413.585s1.052-.224 1.413-.585c.365-.36.59-.86.59-1.413s-.226-1.053-.59-1.413zM6.667 13.333A6.667 6.667 0 1 1 13.334 20a6.667 6.667 0 0 1-6.667-6.667z"/>
    </symbol>

    <!--youtube-->
    <symbol id="youtube_icon" viewBox="0 0 32 32">
      <path fill="#ed1f24" style="fill:var(--color6, #ed1f24)" d="M31.331 8.298a4.007 4.007 0 0 0-2.829-2.829C26.006 4.8 16 4.8 16 4.8s-10.007 0-12.502.669A4.007 4.007 0 0 0 .669 8.298C.001 10.793.001 16 .001 16s0 5.207.668 7.702a4.007 4.007 0 0 0 2.829 2.829C5.994 27.2 16 27.2 16 27.2s10.007 0 12.502-.669a4.007 4.007 0 0 0 2.829-2.829C32 21.207 32 16 32 16s0-5.207-.669-7.702z"/>
      <path fill="#fff" style="fill:var(--color7, #fff)" d="m12.8 20.8 8.314-4.8-8.314-4.8v9.6z"/>
    </symbol>
  </defs>
</svg>
