<svg aria-hidden="true" style="position: absolute; width: 0; height: 0; overflow: hidden;" version="1.1" xmlns="http://www.w3.org/2000/svg" xmlns:xlink="http://www.w3.org/1999/xlink">
<defs>
<symbol id="moon-filmoteka_icon_1" viewBox="0 0 32 32">
<path d="M12.211 15.922c0.139-2.545-1.911-4.295-4.289-4.55-0.588-0.063-0.966 0.275-1.122 0.722-1.409 0.184-2.622 1.877-2.792 3.168-0.289 2.199 1.382 4.238 3.583 4.395 2.324 0.166 4.487-1.312 4.62-3.735zM5.729 15.162c0.173-0.798 0.708-1.255 1.279-1.696 0.199 0.248 0.504 0.412 0.915 0.405 1.198-0.021 2.465 0.734 2.317 2.078-0.158 1.411-1.73 2.028-3.004 1.708-1.054-0.264-1.735-1.442-1.506-2.494z"></path>
<path d="M17.332 15.262c-0.288 2.199 1.383 4.238 3.583 4.395 2.323 0.166 4.486-1.312 4.62-3.736 0.139-2.545-1.911-4.295-4.29-4.55-0.588-0.063-0.966 0.275-1.121 0.722-1.409 0.184-2.622 1.877-2.792 3.169zM23.564 15.948c-0.158 1.411-1.731 2.028-3.005 1.708-1.054-0.264-1.736-1.442-1.507-2.494 0.173-0.798 0.708-1.255 1.28-1.696 0.199 0.248 0.504 0.412 0.914 0.405 1.199-0.021 2.466 0.734 2.318 2.078z"></path>
<path d="M14.491 12.758c2.323 0.166 4.487-1.312 4.619-3.736 0.14-2.545-1.91-4.295-4.288-4.55-0.588-0.063-0.966 0.275-1.122 0.721-1.408 0.184-2.622 1.877-2.792 3.168-0.288 2.199 1.382 4.238 3.583 4.396zM12.628 8.262c0.173-0.798 0.709-1.255 1.28-1.696 0.199 0.248 0.504 0.412 0.915 0.405 1.199-0.021 2.466 0.734 2.316 2.078-0.156 1.412-1.729 2.028-3.004 1.708-1.055-0.264-1.736-1.442-1.507-2.495z"></path>
<path d="M14.584 18.034c-0.588-0.063-0.965 0.275-1.121 0.721-1.409 0.184-2.622 1.877-2.792 3.169-0.288 2.198 1.383 4.238 3.583 4.395 2.324 0.166 4.486-1.312 4.62-3.736 0.139-2.546-1.911-4.295-4.289-4.55zM16.902 22.61c-0.157 1.412-1.73 2.028-3.005 1.707-1.055-0.264-1.736-1.442-1.506-2.494 0.173-0.798 0.708-1.255 1.279-1.696 0.199 0.247 0.504 0.412 0.915 0.406 1.198-0.021 2.466 0.733 2.317 2.077z"></path>
<path d="M10.002 29.812c2.025 0.703 4.064 0.881 6.081 0.671 0.109 0.011 0.223 0.009 0.345-0.011 0.303-0.050 0.604-0.108 0.902-0.172 1.587-0.288 3.157-0.798 4.69-1.468 2.307-1.008 4.4-2.433 6.129-4.267 1.701-1.804 2.582-3.903 3.666-6.088 0.168-0.338-0.34-0.638-0.508-0.297-0.858 1.731-2.251 3.111-3.568 4.501-0.159 0.169-0.323 0.334-0.489 0.497 1.524-2.964 2.222-6.761 1.724-9.991-0.99-6.414-6.341-10.988-12.672-11.664-6.249-0.667-12.705 2.46-15.072 8.486-1.61 4.098-1.429 9.178 0.638 13.080 1.705 3.218 4.728 5.541 8.135 6.724zM2.493 13.41c0.9-5.545 5.521-9.541 11.094-9.855 6.058-0.341 11.484 2.994 13.084 8.952 0.301 1.124 0.321 1.654 0.28 2.922-0.066 2.112-0.43 4.258-1.326 6.187-1.851 3.983-5.587 6.026-9.816 6.612-0.358 0.050-0.592 0.225-0.721 0.456-0.779 0.020-1.553-0.031-2.309-0.176-2.888-0.553-5.626-2.003-7.585-4.213-2.609-2.943-3.32-7.083-2.702-10.885z"></path>
<path d="M15.807 16.385c0.201-0.201 0.353-0.531 0.34-0.82-0.029-0.629-0.51-1.16-1.16-1.16-0.297 0-0.61 0.129-0.82 0.34-0.201 0.201-0.353 0.531-0.34 0.82 0.028 0.628 0.51 1.16 1.16 1.16 0.296 0 0.609-0.13 0.82-0.34z"></path>
</symbol>
</defs>
</svg>
